<?xml version="1.0" standalone="no"?>
<!DOCTYPE svg PUBLIC "-//W3C//DTD SVG 1.1//EN""http://www.w3.org/Graphics/SVG/1.1/DTD/svg11.dtd">
<svg t="1489750843257" class="icon" style="" viewBox="0 0 1024 1024" version="1.1"
    xmlns="http://www.w3.org/2000/svg" p-id="5311"
    xmlns:xlink="http://www.w3.org/1999/xlink" width="200pt" height="200pt">

<defs>
<style type="text/css"></style>
</defs>

<path d="M215.188 486.2v0.944h560.879c127.26-4.242 229.536-109.347 229.536-237.549 0-131.030-106.519-238.021-238.021-238.021-129.143 0-234.721 103.692-237.549 232.363v0 109.821h62.215v-104.636c0-96.622 78.713-175.332 175.332-175.332s175.805 78.713 175.805 175.332-79.184 175.805-176.277 175.805h-529.299c-96.622 0-175.332-78.713-175.332-175.332s78.713-175.332 175.332-175.332 175.332 78.713 175.332 175.332v0 103.22h62.215v-110.29h-0.471c-3.298-128.202-108.878-231.422-237.549-231.422-131.030 0-238.021 106.519-238.021 238.021 0.944 123.487 95.209 225.294 215.869 237.077z" p-id="5312">
	
</path>
<path d="M778.423 540.873v0l-540.141-0.471c-1.885 0-3.298 0-5.185 0h-17.91v0.944c-120.189 11.782-214.925 113.118-214.925 236.606 0 131.030 106.519 238.021 238.021 238.021 129.143 0 234.721-103.692 237.549-232.363h0.471v-109.821h-62.215v104.636c0 96.622-78.713 175.805-175.332 175.805s-176.277-78.713-176.277-175.805c0-95.209 75.884-172.507 170.149-175.332h534.484c96.622 0 175.805 78.713 175.805 175.332s-78.713 175.805-175.805 175.805-175.332-78.713-175.332-175.805v0-104.636h-62.215v109.821h0.471c2.829 128.671 108.406 232.363 237.549 232.363 131.030 0 238.021-106.519 238.021-238.021-0.471-126.787-101.337-230.949-227.179-237.077z" p-id="5313">
</path>
</svg>