<?xml version="1.0" standalone="no"?><!DOCTYPE svg PUBLIC "-//W3C//DTD SVG 1.1//EN" "http://www.w3.org/Graphics/SVG/1.1/DTD/svg11.dtd"><svg t="1489983164919" class="icon" style="" viewBox="0 0 1024 1024" version="1.1" xmlns="http://www.w3.org/2000/svg" p-id="4766" xmlns:xlink="http://www.w3.org/1999/xlink" width="200" height="200"><defs><style type="text/css"></style></defs><path d="M715.063255 373.152973c-29.505743-26.033881-46.860986-62.481315-46.860986-104.135524C668.202269 192.65072 730.683584 130.169405 807.050313 130.169405s138.848044 62.481315 138.848044 138.848044-62.481315 138.848044-138.848044 138.848044H43.389124v-34.71252h671.674131zM928.54108 511.998983c48.5959 0 86.780282 38.182348 86.780282 86.780282 0 48.5959-38.182348 86.780282-86.780282 86.780281s-86.780282-38.182348-86.780281-86.780281c0-19.092191 6.94169-38.182348 17.355242-52.067763H8.678638v-34.712519h919.862442zM477.288498 720.270032c48.5959 0 86.780282 38.182348 86.780281 86.780281s-38.182348 86.780282-86.780281 86.780282S390.508216 855.646213 390.508216 807.050313c0-19.092191 6.94169-38.182348 17.355243-52.067762H78.101643v-34.712519h399.186855z" fill="#ECF4F7" p-id="4767"></path><path d="M685.559546 616.134507c29.505743 0 52.067762 22.562019 52.067762 52.067762s-22.562019 52.067762-52.067762 52.067763-52.067762-22.562019-52.067762-52.067763c0-6.94169 1.734914-12.148467 3.471862-17.355242H43.389124v-34.71252h642.170422zM480.758326 269.017449c-1.734914-5.206776-3.471862-10.413552-3.471862-17.355243 0-29.505743 22.562019-52.067762 52.067762-52.067762 29.505743 0 52.067762 22.562019 52.067762 52.067762s-22.562019 52.067762-52.067762 52.067762H78.101643v-34.712519h402.656683z" fill="#ECF4F7" p-id="4768"></path><path d="M477.288498 902.507199c-52.067762 0-95.456886-43.389124-95.456886-95.456886 0-5.206776 3.471862-8.678638 8.678638-8.678638s8.678638 3.471862 8.678638 8.678638c0 43.389124 34.712519 78.101643 78.101643 78.101643s78.101643-34.712519 78.101644-78.101643-34.712519-78.101643-78.101644-78.101643H78.101643c-5.206776 0-8.678638-3.471862-8.678638-8.678638 0-5.206776 3.471862-8.678638 8.678638-8.678639h399.186855c52.067762 0 95.456886 43.389124 95.456886 95.456886s-43.389124 95.45892-95.456886 95.45892z m208.271048-173.558529c-15.620329 0-31.240657-6.94169-43.389124-17.355243-3.471862-3.471862-3.471862-8.678638 0-12.148466 3.471862-3.471862 8.678638-3.471862 12.148467 0 8.678638 8.678638 19.092191 12.148467 31.240657 12.148466 24.298967 0 43.389124-19.092191 43.389124-43.389124s-19.092191-43.389124-43.389124-43.389123H43.389124c-5.206776 0-8.678638-3.471862-8.678639-8.678639s3.471862-8.678638 8.678639-8.678638h642.168388c32.975571 0 60.7464 27.768795 60.746401 60.7464S718.535117 728.94867 685.559546 728.94867z m242.981534-34.712519c-52.067762 0-95.456886-43.389124-95.456886-95.456886 0-5.206776 3.471862-8.678638 8.678639-8.678639s8.678638 3.471862 8.678638 8.678639c0 43.389124 34.712519 78.101643 78.101643 78.101643s78.101643-34.712519 78.101643-78.101643-34.712519-78.101643-78.101643-78.101644H8.678638C3.471862 520.677621 0 517.205759 0 511.998983c0-5.206776 3.471862-8.678638 8.678638-8.678638h919.864476c52.067762 0 95.456886 43.389124 95.456886 95.456886s-43.391158 95.45892-95.45892 95.45892zM807.050313 416.542097H43.389124c-5.206776 0-8.678638-3.471862-8.678639-8.678638 0-5.206776 3.471862-8.678638 8.678639-8.678639H807.050313c60.7464 0 130.169405-57.274538 130.169405-130.169405s-69.423005-130.169405-130.169405-130.169405c-71.159953 0-130.169405 59.009452-130.169405 130.169405 0 5.206776-3.471862 8.678638-8.678639 8.678638s-8.678638-3.471862-8.678638-8.678638c0-81.573505 65.953177-147.524648 147.524648-147.524648 69.423005 0 147.524648 62.481315 147.524648 147.524648S876.473318 416.542097 807.050313 416.542097z m-275.959139-104.135524H78.101643c-5.206776 0-8.678638-3.471862-8.678638-8.678638s3.471862-8.678638 8.678638-8.678639h452.989531c24.298967 0 41.65421-19.092191 41.65421-43.389124 0-24.298967-17.355243-43.389124-41.65421-43.389123-12.148467 0-22.562019 5.206776-31.240657 12.148466-3.471862 3.471862-8.678638 3.471862-12.148467 0-3.471862-3.471862-3.471862-8.678638 0-12.148466 12.148467-12.148467 26.033881-17.355243 43.389124-17.355243 32.975571 0 59.009452 26.033881 59.009452 60.7464s-26.033881 60.744367-59.009452 60.744367z" fill="#51565F" p-id="4769"></path></svg>